<?xml version="1.0" encoding="utf-8"?>
<!-- Generator: Adobe Illustrator 23.0.1, SVG Export Plug-In . SVG Version: 6.00 Build 0)  -->
<svg version="1.1" id="Layer_1" xmlns="http://www.w3.org/2000/svg" xmlns:xlink="http://www.w3.org/1999/xlink" x="0px" y="0px"
	 viewBox="0 0 400 717" style="enable-background:new 0 0 400 717;" xml:space="preserve">
<style type="text/css">
	.st0{fill:#007DBC;}
	.st1{fill:#FEFEE4;}
</style>
<path class="st0" d="M47.83,23.24c-0.14-0.26-0.29-0.51-0.43-0.77c0.63-1.77-0.68-2.92-1.44-4.18c-0.95-1.57-2.39-2.83-3.17-4.77
	c3.75-1.54,6.33-4.51,9.18-7.12c2.05-1.87,4.27-2.62,7.09-2.35c5.33,0.51,10.64,1.39,16.06,0.54c4.31-0.67,5.96-0.86,5.57,4.87
	c-0.14,2.08,0.4,2.6,2.41,3.11c1.34,0.34,2.72,0.58,4.06,0.92c0.89,0.22,1.99,0.27,2.44,1.16c0.84,1.66,2.19,1.66,3.52,1.11
	c2.74-1.14,4.53,0.04,6.3,2c5.9,6.54,11.9,12.99,17.85,19.5c1.01,1.11,2.16,2,3.4,2.84c4.87,3.3,10.43,5.22,15.65,7.82
	c1.99,0.99,2.01,0.94,2.2-1.46c0.01-0.13,0.24-0.24,0.46-0.45c1.82,0.56,3.36,1.72,4.87,2.95c14.98,12.15,29.95,24.3,44.93,36.44
	c1.66,1.34,3.2,2.73,4.32,4.63c0.93,1.58,2.21,2.97,3.65,4.17c1.28,1.07,2.46,2.26,3.41,3.65c0.29,0.42,0.89,0.84,0.34,1.42
	c-0.51,0.54-1.19,0.53-1.79,0.16c-0.38-0.24-0.75-0.59-0.96-0.98c-1.15-2.08-3.21-2.33-5.23-2.63c-0.76-0.11-1.58,0-2.02,0.65
	c-0.51,0.75,0.28,1.35,0.52,2.01c0.09,0.25,0.3,0.47,0.5,0.66c2.97,2.77,5.89,5.62,8.96,8.27c1.11,0.96,2.46,1.82,4.33,1.89
	c-0.69-1.39-1.27-2.52-1.82-3.67c-0.36-0.76-0.31-1.54,0.52-1.89c0.86-0.37,1.85-0.55,2.41,0.56c0.29,0.57,0.51,1.19,0.7,1.81
	c0.77,2.49,1.87,4.83,3.04,7.15c1.88,3.72,3.67,7.48,5.5,11.22c-0.19,0.17-0.38,0.34-0.56,0.51c-1.44-0.26-2.71-1.15-4.26-1.05
	c-1.36,0.08-2.18,0.89-2.4,2.44c-0.2,1.39,1.01,1.31,1.76,1.67c0.4,0.19,0.9,0.15,1.35,0.26c3.01,0.68,3.57,1.35,3.83,4.41
	c0.05,0.57-0.35,1.37,0.64,1.56c0.65,0.13,1.19,0.04,1.77-0.44c1.42-1.2,1.46-1.15,2.53,0.53c0.16,0.26,0.31,0.53,0.47,0.79
	c-0.33,0.28-0.35,0.6-0.18,0.98c2.13,4.81,3.8,9.92,8.79,12.76c0.69,0.39,1.15,0.97,0.84,1.83c-0.2,0.54-0.58,0.98-1.15,1.11
	c-1,0.23-1.25-0.65-1.56-1.27c-1.1-2.19-2.97-3.17-5.25-3.67c-1.71-0.38-3.43-0.78-5.02-1.6c-0.39-0.2-0.91-0.8-1.45-0.01
	c1.03,2.45,3.03,4.13,4.94,5.86c1.77,1.61,3.88,3.01,3.5,5.9c-0.02,0.17,0.02,0.44,0.13,0.53c1.99,1.53,0.58,2.58-0.49,3.7
	c-0.44,0.46-0.94,0.91-1.04,1.6c0.25,0.65,0.84,0.98,1.34,1.38c2.21,1.79,4.31,1.67,6.41-0.27c0.83-0.77,1.49-1.63,2.03-2.62
	c0.68-1.25,1.38-2.49,2.2-3.95c2.64,3.15,5.25,5.9,7.15,9.21c1.29,2.25,2.57,4.51,3.93,6.71c1.24,2.01,2.78,3.62,5.22,4.28
	c2.06,0.55,3.53,1.87,4.3,3.97c0.8,2.17,1.76,4.28,2.64,6.42c0.7,1.7,1.84,3.23,3.51,3.76c4,1.25,5.08,4.5,6.07,7.92
	c0.59,2.05,1.09,4.12,1.63,6.18c0.16,0.62,0.2,1.3,0.81,1.69c0.44-0.1,0.48-0.49,0.62-0.81c0.25-0.56,0.32-1.38,1.25-1.15
	c0.76,0.19,1.42,0.55,1.19,1.53c-0.27,1.13,0.62,1.66,1.2,2.34c1.55,1.84,3.4,3.43,4.59,5.56c1.31,2.37,0.85,4.16-1.46,5.56
	c-1.19,0.72-2.16,1.55-2.54,3c1.04,0.22,1.79-0.26,2.6-0.37c0.59-0.08,1.13-0.18,1.42,0.45c1.31,2.85,3.11,5.5,3.57,8.69
	c0.35,2.47,0.3,2.5-2.65,2.36c0.24-1.37,0.17-2.71-0.71-3.88c-1.1-1.46-2.6-1.38-3.47,0.17c-1.1,1.95-1.2,3.82,0.15,5.72
	c0.69,0.97,1.45,1.94,0.88,3.3c-0.36,0.86-0.76,1.21-1.65,0.57c-1.28-0.92-2.55-1.87-3.91-2.64c-4.17-2.37-7.13-0.9-9.36,2.65
	c-0.46,0.73-0.38,1.36-0.04,2.08c0.42,0.87,1.11,0.75,1.88,0.71c1.39-0.07,2.42-0.79,3.44-1.64c1.96-1.62,2-1.62,3.68,0.36
	c0.84,0.99,1.57,2.07,2.32,3.12c2.41,3.35,5.66,4.91,9.78,4.71c1.57-0.08,3.15-0.22,4.72-0.18c1.41,0.04,2.45-0.68,3.57-1.35
	c0.77-0.46,0.94-0.98,0.61-1.83c-0.39-1-1.44-2.02-0.88-3.04c0.52-0.94,1.91-1.01,2.89-1.53c0.33-0.17,0.69-0.27,1.03-0.42
	c2.22-0.98,4.14-0.51,5.85,1.13c1.78,1.71,3.05,3.62,3.44,6.17c0.21,1.36-0.15,3.01,1.23,4.05c0.07,0.26,0.15,0.53,0.22,0.79
	c-0.76,0.54-0.26,1.17-0.1,1.75c0.66,2.32,1.36,4.62,2.03,6.93c0.4,1.39,0.48,2.77,0.03,4.34c-1.75-1.08-2.06-2.73-2.75-4.09
	c-0.75-1.47-1.79-2.21-3.38-2.23c-0.11,0.3-0.21,0.47-0.22,0.64c-0.14,1.87,0.45,3.67,0.6,5.52c0.36,4.24,2.26,5.29,5.23,5.5
	c2.53,0.18,2.58,0.37,3.1,2.99c1.29,6.53,2.71,13.03,4.65,19.4c1.43,4.7,2.76,9.42,3.48,14.29c0.35,2.36-0.09,3.26-2.45,4.63
	c-0.24-0.91-0.52-1.79-0.7-2.69c-0.75-3.65-2.09-7.1-3.36-10.58c-0.27-0.73-0.55-1.39-1.52-1.32c-1.06,0.08-1.08,0.89-1.1,1.62
	c-0.09,2.5-0.15,5-0.17,7.5c-0.01,1.09,0.4,2.07,1.46,2.48c1.09,0.43,1.58,1.27,1.82,2.27c0.47,1.96,1.79,3.17,3.4,4.18
	c2.22,1.4,4.27,0.67,5.03-1.82c0.16-0.53,0.18-1.11,0.83-1.4c1.2,1.15,1.47,2.71,1.85,4.23c0.54,2.14,0.58,4.52,2.16,6.23
	c2.69,2.92,4.34,6.41,5.92,9.97c0.06,0.13,0.31,0.17,0.51,0.27c0.59-0.39,1.2-0.78,1.82-1.18c0.13,0.14,0.25,0.28,0.38,0.43
	c-0.2,1.35,0.85,2.12,1.27,3.17c0.34-0.12,0.52-0.16,0.69-0.24c0.96-0.44,1.91-1.7,2.93-0.94c1.05,0.78,0.18,2.04-0.09,3.09
	c-0.64,2.5,0.15,4.57,2.03,6.24c0.83,0.74,1.78,1.34,2.59,2.1c0.76,0.71,1,1.39-0.06,2.26c-1.71,1.42-2.2,3.54-1.72,5.53
	c0.69,2.85,1.54,5.67,3.72,7.95c1.39,1.45,2.56,2.42,4.73,1.87c2.05-0.52,2.15-0.34,2.82,1.57c0.91,2.59,2.37,4.79,4.3,6.73
	c1.77,1.77,3.57,3.52,5.19,5.43c1.48,1.75,3.03,3.52,3.28,5.98c0.06,0.66,0.19,1.3-0.42,1.78c-1.25,0.99-3.18,0.96-4.3-0.24
	c-1.08-1.15-2.01-2.43-2.96-3.68c-1.01-1.34-2.1-2.63-3.48-3.57c-1.9-1.3-4.1-2.12-6.29-1.08c-2.2,1.05-2.65,3.43-3.17,5.61
	c-0.12,0.5,0.18,0.83,0.59,1.13c1.84,1.33,4.55,1.46,6.14-0.13c1.04-1.04,1.88-0.96,2.93-0.41c1.04,0.54,2.54,0.85,2.45,2.32
	c-0.1,1.68,0.9,2.5,1.91,3.46c2.02,1.91,4.18,3.69,5.53,6.2c0.44,0.83,0.94,1.55,0.34,2.55c-0.87,1.43-0.01,2.67,0.6,3.91
	c0.33,0.68,0.8,0.65,1.29,0.12c0.39-0.42,0.66-0.89,0.78-1.45c0.19-0.84,0.68-1.09,1.4-0.6c2.07,1.4,4.24,2.68,5.01,5.34
	c0.38,1.33,0.94,2.62,1.56,3.86c0.91,1.84,1.1,3.69,0.43,5.63c-0.47,1.36-0.61,2.71,0.17,4.02c0.48,0.81,0.43,1.59-0.23,2.29
	c-0.69,0.73-1.79,1.24-1.8,2.36c-0.02,1.05,0.92,1.77,1.4,2.65c0.36,0.65,0.63,1.34,1,1.98c0.43,0.75,0.81,1.39-0.01,2.21
	c-0.78,0.78-0.25,1.61,0.38,2.17c0.76,0.69,1.53,0.41,2.17-0.32c0.35-0.4,0.64-0.97,1.44-0.62c0.42,2.68,1.32,5.34,1.23,8.17
	c-0.02,0.67,0.07,1.36,0.95,1.42c1.01,0.07,1.25-0.64,1.25-1.45c0.01-1.88,0.19-3.74,1.03-5.42c0.71-1.42,1.42-2.8,1.35-4.58
	c1.24,0.7,1.97,1.49,2,2.55c0.07,3.01,1.35,5.51,2.99,7.92c0.4,0.59,0.56,1.36,0.77,2.07c0.69,2.31,1.14,4.71,2.05,6.93
	c2.25,5.49,2,11.24,1.83,16.94c-0.12,3.8-0.25,7.6-0.32,11.4c-0.11,5.75-0.13,11.5-0.37,17.25c-0.14,3.2,0.07,6.33,1.19,9.31
	c1.97,5.22,1.33,10.48,0.01,15.6c-2.15,8.34-4.68,16.58-7.13,24.85c-0.85,2.87-1.41,5.76-1.48,8.74c-0.05,2.26-0.54,4.39-1.66,6.39
	c-0.67,1.21-1.42,2.4-1.73,3.78c-0.64,2.94-1.88,5.6-3.64,8.04c-0.76,1.05-1.38,2.2-2.12,3.26c-0.64,0.91-0.87,1.83-0.4,2.86
	c0.96,2.11,0.58,4.09-0.35,6.14c-0.65,1.44-1.34,2.84-2.18,4.18c-3.16,5.03-6.24,10.1-9.46,15.08c-3.15,4.88-5.85,10.09-10.43,13.96
	c-2.91,2.47-6.12,4.5-9.13,6.81c-1.41,1.08-2.96,1.81-4.65,2.4c-2.54,0.87-4.92,2.15-7.05,3.84c-7.49,5.92-14.95,11.89-22.49,17.76
	c-3.65,2.84-7.12,5.92-11.07,8.39c-5.02,3.14-10.68,4.66-16.14,6.68c-3.19,1.18-6.41,2.27-9.66,3.41c-0.29-0.85-0.42-1.5-0.72-2.06
	c-0.41-0.76-1.03-1.36-1.98-1.29c-0.92,0.07-1.54,0.63-1.79,1.51c-0.2,0.71-0.39,1.44-0.45,2.17c-0.11,1.36-0.72,2.21-2.08,2.6
	c-1.52,0.43-2.91,1.2-4.23,2.07c-2.98,1.96-6.27,3.08-9.75,3.85c-6.15,1.36-12.42,2.2-18.37,4.38c-3.66,1.35-7.37,2.47-11.26,2.97
	c-1.37,0.18-2.76,0.44-4.08,0.84c-2.56,0.77-5.24,1.36-6.59,4.13c-0.61,1.25-1.89,1.29-2.92,0.95c-2.89-0.97-5.45,0.1-7.62,1.55
	c-4.92,3.3-9.61,6.96-14.38,10.48c-0.14,0.11-0.29,0.26-0.36,0.42c-1.21,2.66-3.38,3.11-5.98,2.66c-0.45-0.08-0.93,0.02-1.39-0.04
	c-4.22-0.53-7.86,0.89-11.14,3.38c-4.21,3.19-4.34,4.22-10.66,0.9c-2.28-1.2-4.63-1.71-7.24-1.2c-2.09,0.41-4.22,0.58-6.35,0.78
	c-2.61,0.25-4.79-0.39-5.88-3.1c-0.2-0.51-0.6-0.94-0.84-1.44c-0.63-1.37-1.49-1.45-2.63-0.59c-1.33,1.01-2.9,1.24-4.5,1.07
	c-1.56-0.16-3.1-0.54-4.66-0.72c-0.97-0.11-1.68-0.46-2.39-1.19c-1.46-1.52-1.97-1.6-3.85-0.54c-1.04,0.58-1.74,0.5-2.36-0.42
	c-0.59-0.88-1.35-1.53-2.34-1.88c-2.88-1.01-5.71-2.27-8.68-2.94c-3.13-0.71-6.06-1.53-8.4-3.89c-0.56-0.57-1.44-0.81-2.17-1.21
	c-0.41-0.23-0.91-0.5-1.29-0.16c-1.24,1.11-1.99,0.11-2.85-0.56c-0.8-0.62-1.6-1.24-2.39-1.87l0.02,0.02
	c-0.84-1.4-1.78-2.71-3.36-3.36c0,0,0.02,0.03,0.02,0.03c-0.03-0.36-0.22-0.56-0.59-0.59l0.03,0.03c0-0.61-0.39-1.02-0.77-1.42
	c-2.85-3.04-5.65-6.13-8.58-9.09c-1.13-1.15-2.25-2.16-2.18-3.95c0.03-0.77-0.54-1.37-1.03-1.92c-1.26-1.4-2.07-3.06-2.85-4.74
	c-1.92-4.1-3.79-8.24-5.78-12.3c-0.96-1.96-1.65-3.91-1.42-6.12c0.07-0.74-0.01-1.51-0.4-2.16c-1.44-2.36-1.86-5.02-2.18-7.68
	c-0.32-2.74-1.27-5.2-2.79-7.45c-0.95-1.4-1.35-3.01-1.97-4.54c-0.23-0.25-0.46-0.51-0.69-0.76c1-1.48-0.11-2.81-0.36-4.17
	c-0.39-2.14-0.58-4.39-2.7-5.85c-0.83-0.57-0.7-1.53,0.59-1.68c0.88-0.1,1.05-0.62,0.92-1.36c-0.71-4-0.79-8.1-2.3-11.97
	c-5.34-13.63-10.61-27.29-15.9-40.94c-0.84-2.16-1.91-4.29-2.34-6.53c-1.47-7.73-3.17-15.43-2.73-23.42
	c0.14-2.54,0.35-4.94,1.49-7.25c1.25-2.52,1.29-5.1,0.5-7.83c-2.39-8.18-4.65-16.4-6.94-24.62c-0.24-0.86-0.72-1.73-0.14-2.84
	c1.21,0.43,1.57,1.51,1.91,2.51c0.51,1.49,0.86,3.03,1.28,4.55c0.23,0.81,0.52,1.6,1.06,2.25c0.58,0.69,1.38,0.81,1.87,0.07
	c0.64-0.95,1.37-2.05,1.45-3.13c0.2-2.48,0.28-5.01-0.44-7.46c-0.48-1.6-1.32-2.73-3.12-3.17c-2.61-0.65-3.07-1.6-2.08-3.99
	c0.6-1.44,0.67-2.81,0.43-4.33c-0.86-5.39-1.65-10.81-2.35-16.21c-0.79-6.06-1.59-12.13-2.4-18.19c-0.64-4.85-1.03-9.76-2.24-14.53
	c-0.13-0.32-0.26-0.63-0.38-0.95c0.41-0.34,0.46-0.8,0.38-1.26c-0.8-4.36-0.95-8.82-2.02-13.14c0.21-0.18,0.42-0.36,0.63-0.54
	c0.96,0.4,1.41,0.03,1.41-0.95c0-1.87,0.59-3.63,1-5.43c0.57-2.48,0.7-4.97-0.73-7.23c-1.41-2.22-1.62-4.66-1.64-7.17
	c-0.01-1.38,0.12-2.78-0.03-4.15c-0.27-2.34-0.18-4.81-1.84-6.79c-0.02-0.23-0.05-0.46-0.07-0.69c0.14-0.22,0.45-0.49,0.4-0.67
	c-1.54-6.27-1.69-12.89-4.73-18.78c-0.43-0.83-0.61-1.73-0.77-2.65c-0.81-4.76-1.84-9.45-3.94-13.85c-0.47-0.99-0.71-2.1-0.95-3.18
	c-0.89-3.88-1.8-7.76-2.57-11.67c-0.57-2.9-1.64-5.72-1.43-8.75c0.04-0.63-0.19-1.35,0.34-1.85c1.44-1.36,1.42-3.17,1.34-4.87
	c-0.14-3.24-0.25-6.52-0.93-9.67c-0.52-2.41-0.4-4.04,1.95-5.22c0.61-0.3,0.93-1.14,1.44-1.67c1.76-1.82,2.42-4.32,3.96-6.46
	c1.29,1.91,3.02,2.85,5.23,3.07c-0.36,1.74-0.94,3.3-1.67,4.78c-0.53,1.07-0.74,2.62-1.83,3.02c-2.39,0.87-2.35,2.73-2.13,4.54
	c0.32,2.67-0.31,5.16-1.02,7.65c-0.43,1.51-1.08,2.96-1.49,4.47c-1.02,3.73-1.06,7.3,2.02,10.25c0.27,0.26,0.46,0.58,0.73,0.84
	c0.78,0.76,0.81,1.57,0.33,2.51c-0.79,1.57-1.48,3.2-2.31,4.75c-0.53,1-0.42,1.67,0.49,2.37c2.81,2.15,5.56,4.35,9.44,3.92
	c0.54-0.06,1.11,0.07,1.65,0.19c2.91,0.62,4.6-1.5,6.58-2.92c0.52-0.37,0.27-0.99,0.15-1.55c-0.79-3.56-2.63-6.5-5.26-8.96
	c-1.84-1.71-1.95-1.98-0.8-4.24c1.39-2.72,2.76-5.46,4.27-8.11c1.04-1.83,1.05-3.62-0.09-5.23c-1.5-2.13-1.71-4.42-1.54-6.88
	c0.15-2.03,0.25-4.06-1.08-5.88c-0.65-0.89-0.36-2,0.13-2.91c0.52-0.97,1.12-1.92,1.82-2.78c0.86-1.05,1.4-2.22,1.54-3.52
	c0.67-6.27,2.59-12.33,2.88-18.66c0.13-2.86,0.52-5.72,0.74-8.58c0.13-1.63,0.56-3.11,1.83-4.21c1.45-1.26,1.9-2.92,1.95-4.73
	c0.04-1.48,0.11-2.97,0-4.45c-0.33-4.38,1.18-7.7,5.07-10c2.37-1.4,3.98-3.52,4.59-6.35c0.31-1.43,1.08-2.76,1.45-4.18
	c0.56-2.16,2.05-3.97,2.26-6.24c0.44-4.89,0.88-9.78,1.34-14.67c0.13-1.32-0.05-2.56-0.55-3.8c-1.05-2.57-2-5.18-3.01-7.77
	c-0.34-0.87-0.52-1.73-0.47-2.69c0.21-4.35,0.45-8.71,0.43-13.06c-0.01-2.94-0.18-5.91-1.62-8.65c-0.94-1.79-0.76-2.2,1.32-2.55
	c2.21-0.37,3.89-1.43,5.53-2.91c4.03-3.65,7.75-7.72,12.99-9.83c1.96-0.79,3.21-2.43,3.61-4.62c0.28-1.56,0.89-3.02,1.65-4.41
	c0.85-1.57,1.37-3.24,1.62-5c0.36-2.49,1.09-4.87,2.04-7.19c2.33-5.71,4.58-11.45,5.93-17.5c0.18-0.82,0.37-1.61,0.4-2.46
	c0.1-3.61-0.25-7.23,0.21-10.83c0.14-1.06-0.36-1.8-1.49-1.94c-1.33-0.16-2.37-1.01-3.57-1.47c-1.44-0.56-2.47-1.89-4.08-2.07
	c0,0,0.03,0.03,0.03,0.03c-0.43-2.54-1.67-4.84-2.08-7.4c-0.61-3.81-0.15-4.93,3.25-6.68c2.66-1.37,5.44-2.38,8.42-2.72
	c2.18-0.25,3.87-1.16,4.99-3.08c0.32-0.56,0.82-1.01,1.16-1.56c1.41-2.26,3.46-3.52,6.03-4.11c1.77-0.41,1.77-0.47,0.9-2.18
	c-2.39-4.71-6.18-8.06-10.61-10.74c-3.49-2.11-7.03-4.13-10.56-6.19c-1.19-0.69-2.34-1.41-2.69-3.11c2.09-0.17,3.95-0.24,5.82,0.57
	c2.3,0.99,4.63,1.92,6.71,3.33c4.91,3.3,10.24,5.54,16.07,6.59c3.72,0.67,6.03,3.46,8.61,5.82c0.38,0.35,0.83,1.18,0.32,1.46
	c-1.77,0.98-1,2.27-0.7,3.57c0.14,0.61-0.76,1.08-0.35,1.81c0.69,1.23,4.06,2.59,5.61,2.23c4.34-1.01,8.62-2.17,12.72-3.96
	c2.97-1.3,6.04-2.37,9.03-3.62c1.15-0.48,2.27-0.68,3.51-0.48c4.87,0.77,9.67,1.85,14.14,3.93c5.4,2.51,10.8,4.88,16.79,5.58
	c0.45,0.05,0.89,0.33,1.09-0.17c0.07-0.44-0.14-0.62-0.37-0.78c-3.82-2.63-7.6-5.32-11.48-7.86c-1.7-1.11-3.55-2.13-5.56-2.47
	c-2.48-0.41-4.55-1.45-6.43-3.05c-2.62-2.23-5.6-1.78-8.35-0.58c-1.2,0.52-1.88,0.8-2.87-0.06c-0.82-0.72-1.87-0.72-2.9-0.68
	c-1.02,0.04-2.04,0.05-3.06,0.11c-1.86,0.11-3.41-0.43-4.77-1.78c-1.38-1.37-2.94-2.56-4.39-3.85c-5.2-4.64-10.52-9.07-17.18-11.59
	c-3.02-1.14-6.03-2.4-8.78-4.16c-0.82-0.52-1.71-0.68-2.66-0.56c-0.66,0.08-1.02,0.44-0.98,1.1c0.15,2.32,0.18,4.68,2.61,6.04
	c0.65,0.36,1.19,0.89,1.55,1.56c0.53,1.01,0.06,1.81-0.58,2.51c-0.54,0.59-1.19,0.41-1.75-0.01c-2.59-1.93-5.7-3.12-7.95-5.56
	c-0.57-0.61-1.12-1.56-2.27-1.25l0.01,0.01c-0.89-2.62-3.29-2.68-5.73-3.57c0.71,1.97,2.11,2.76,3.13,3.88
	c0.63,0.69,2.2,1.21,1.49,2.27c-0.62,0.93-1.86,0.01-2.77-0.37c-6.09-2.57-11.71-5.9-16.77-10.16c-2.46-2.07-5.81-2.34-8.39-4.17
	c-0.13-0.09-0.4-0.15-0.53-0.08c-1.92,0.97-2.12-0.68-2.62-1.76C48.23,24.45,48.35,23.73,47.83,23.24z"/>
<path class="st1" d="M410.3-25.6c0.46-0.36,1.01-0.92,1.53-0.32c0.49,0.57,0.04,1.11-0.51,1.47
	C410.98-24.84,410.64-25.22,410.3-25.6z"/>
<path class="st1" d="M92.39-587.94c0.34,0.51,0.82,1.17,0.17,1.58c-0.37,0.23-1.11-0.12-1.69-0.2
	C91.37-587.02,91.88-587.48,92.39-587.94z"/>
</svg>
